<svg width="156" height="156" viewBox="0 0 156 156" fill="none" xmlns="http://www.w3.org/2000/svg">
<path d="M133.154 133.154C144.063 122.246 151.492 108.348 154.501 93.217C157.511 78.0865 155.966 62.4033 150.063 48.1507C144.159 33.8981 134.162 21.7161 121.334 13.1454C108.507 4.57462 93.4269 7.04943e-07 78 0C62.5731 -7.04943e-07 47.4926 4.57462 34.6655 13.1454C21.8385 21.7161 11.841 33.8981 5.9374 48.1507C0.033762 62.4033 -1.5109 78.0865 1.49875 93.217C4.50839 108.348 11.9372 122.246 22.8457 133.154L34.6442 121.356C26.0692 112.781 20.2295 101.856 17.8637 89.9618C15.4979 78.068 16.7121 65.7397 21.3529 54.536C25.9936 43.3322 33.8524 33.7562 43.9355 27.0189C54.0186 20.2816 65.8732 16.6856 78 16.6856C90.1268 16.6856 101.981 20.2816 112.064 27.0189C122.148 33.7562 130.006 43.3322 134.647 54.536C139.288 65.7397 140.502 78.068 138.136 89.9619C135.77 101.856 129.931 112.781 121.356 121.356L133.154 133.154Z" fill="white" fill-opacity="0.08"/>
<path d="M28.5025 127.497C25.3783 130.622 20.2764 130.645 17.4885 127.217C10.4634 118.58 5.34839 108.514 2.52369 97.6806C-0.975882 84.2596 -0.833491 70.1481 2.93619 56.8004C6.70588 43.4526 13.9665 31.3515 23.9699 21.744C33.9732 12.1364 46.3575 5.36997 59.8464 2.14193C73.3354 -1.08611 87.4411 -0.658997 100.71 3.37926C113.979 7.41752 125.931 14.9209 135.335 25.116C144.739 35.3112 151.254 47.8295 154.209 61.3808C156.594 72.3189 156.591 83.6106 154.237 94.4923C153.302 98.8107 148.742 101.099 144.542 99.728L143.891 99.5152C139.691 98.1437 137.453 93.6296 138.267 89.2868C139.771 81.2538 139.659 72.9734 137.907 64.936C135.583 54.2835 130.462 44.4431 123.07 36.4289C115.678 28.4146 106.282 22.5164 95.852 19.342C85.4215 16.1676 74.3332 15.8318 63.7298 18.3693C53.1264 20.9068 43.3913 26.2258 35.5279 33.7781C27.6644 41.3304 21.9569 50.8429 18.9937 61.3353C16.0304 71.8277 15.9185 82.9205 18.6694 93.4706C20.745 101.431 24.3939 108.865 29.3718 115.346C32.0629 118.851 32.1115 123.889 28.9873 127.013L28.5025 127.497Z" fill="url(#paint0_linear_158_3994)"/>
<defs>
<linearGradient id="paint0_linear_158_3994" x1="156" y1="78" x2="-1.16229e-06" y2="78" gradientUnits="userSpaceOnUse">
<stop stop-color="#5772FF"/>
<stop offset="1" stop-color="#9557FF"/>
</linearGradient>
</defs>
</svg>
