<svg width="156" height="156" viewBox="0 0 156 156" fill="none" xmlns="http://www.w3.org/2000/svg">
<path d="M133.154 133.154C144.063 122.246 151.492 108.348 154.501 93.217C157.511 78.0865 155.966 62.4033 150.063 48.1507C144.159 33.8981 134.162 21.7161 121.334 13.1454C108.507 4.57462 93.4269 7.04943e-07 78 0C62.5731 -7.04943e-07 47.4926 4.57462 34.6655 13.1454C21.8385 21.7161 11.841 33.8981 5.9374 48.1507C0.033762 62.4033 -1.5109 78.0865 1.49875 93.217C4.50839 108.348 11.9372 122.246 22.8457 133.154L34.6442 121.356C26.0692 112.781 20.2295 101.856 17.8637 89.9618C15.4979 78.068 16.7121 65.7397 21.3529 54.536C25.9936 43.3322 33.8524 33.7562 43.9355 27.0189C54.0186 20.2816 65.8732 16.6856 78 16.6856C90.1268 16.6856 101.981 20.2816 112.064 27.0189C122.148 33.7562 130.006 43.3322 134.647 54.536C139.288 65.7397 140.502 78.068 138.136 89.9619C135.77 101.856 129.931 112.781 121.356 121.356L133.154 133.154Z" fill="white" fill-opacity="0.08"/>
<path d="M28.5025 127.497C25.3783 130.622 20.2764 130.645 17.4885 127.217C13.0981 121.82 9.44944 115.858 6.64017 109.492C4.85629 105.45 7.19847 100.918 11.402 99.5571L12.0543 99.346C16.2578 97.9853 20.722 100.321 22.618 104.312C24.4738 108.218 26.7377 111.917 29.3718 115.346C32.0629 118.851 32.1115 123.889 28.9873 127.013L28.5025 127.497Z" fill="url(#paint0_linear_158_3994)"/>
<defs>
<linearGradient id="paint0_linear_158_3994" x1="156" y1="78" x2="-1.16229e-06" y2="78" gradientUnits="userSpaceOnUse">
<stop stop-color="#5772FF"/>
<stop offset="1" stop-color="#9557FF"/>
</linearGradient>
</defs>
</svg>
