<svg width="156" height="156" viewBox="0 0 156 156" fill="none" xmlns="http://www.w3.org/2000/svg">
<path d="M133.154 133.154C144.063 122.246 151.492 108.348 154.501 93.217C157.511 78.0865 155.966 62.4033 150.063 48.1507C144.159 33.8981 134.162 21.7161 121.334 13.1454C108.507 4.57462 93.4269 7.04943e-07 78 0C62.5731 -7.04943e-07 47.4926 4.57462 34.6655 13.1454C21.8385 21.7161 11.841 33.8981 5.9374 48.1507C0.033762 62.4033 -1.5109 78.0865 1.49875 93.217C4.50839 108.348 11.9372 122.246 22.8457 133.154L34.6442 121.356C26.0692 112.781 20.2295 101.856 17.8637 89.9618C15.4979 78.068 16.7121 65.7397 21.3529 54.536C25.9936 43.3322 33.8524 33.7562 43.9355 27.0189C54.0186 20.2816 65.8732 16.6856 78 16.6856C90.1268 16.6856 101.981 20.2816 112.064 27.0189C122.148 33.7562 130.006 43.3322 134.647 54.536C139.288 65.7397 140.502 78.068 138.136 89.9619C135.77 101.856 129.931 112.781 121.356 121.356L133.154 133.154Z" fill="white" fill-opacity="0.08"/>
<path d="M28.5025 127.497C25.3783 130.622 20.2761 130.645 17.4882 127.217C7.52713 114.971 1.47458 99.9325 0.236489 84.0693C-1.20999 65.5362 4.01014 47.0958 14.9563 32.0708C25.9024 17.0458 41.8548 6.4242 59.9391 2.11981C75.4181 -1.56448 91.5877 -0.413236 106.298 5.31413C110.415 6.91713 111.957 11.7808 109.941 15.7123L109.628 16.3224C107.612 20.2539 102.802 21.7518 98.6416 20.2644C87.5127 16.2855 75.4106 15.589 63.8026 18.3519C49.5869 21.7355 37.047 30.085 28.4425 41.8959C19.8379 53.7068 15.7344 68.2024 16.8715 82.771C17.7999 94.667 22.1728 105.973 29.3716 115.346C32.0628 118.85 32.1115 123.889 28.9873 127.013L28.5025 127.497Z" fill="url(#paint0_linear_158_3994)"/>
<defs>
<linearGradient id="paint0_linear_158_3994" x1="156" y1="78" x2="-1.16229e-06" y2="78" gradientUnits="userSpaceOnUse">
<stop stop-color="#5772FF"/>
<stop offset="1" stop-color="#9557FF"/>
</linearGradient>
</defs>
</svg>
