<svg width="24" height="24" viewBox="0 0 24 24" fill="none" xmlns="http://www.w3.org/2000/svg">
<path fill-rule="evenodd" clip-rule="evenodd" d="M21.6 21.6288C21.6 22.2226 21.1225 22.7039 20.5334 22.7039C19.9443 22.7039 19.4667 22.2226 19.4667 21.6288V19.4784C19.4667 17.6969 18.034 16.2528 16.2667 16.2528H7.73336C5.96605 16.2528 4.53336 17.6969 4.53336 19.4784V21.6288C4.53336 22.2226 4.05579 22.7039 3.46669 22.7039C2.87759 22.7039 2.40002 22.2226 2.40002 21.6288V19.4784C2.40002 16.5093 4.78784 14.1024 7.73336 14.1024H16.2667C19.2122 14.1024 21.6 16.5093 21.6 19.4784V21.6288ZM12 11.952C9.05451 11.952 6.66669 9.54503 6.66669 6.57595C6.66669 3.60687 9.05451 1.19995 12 1.19995C14.9455 1.19995 17.3334 3.60687 17.3334 6.57595C17.3334 9.54503 14.9455 11.952 12 11.952ZM12 9.80155C13.7673 9.80155 15.2 8.3574 15.2 6.57595C15.2 4.7945 13.7673 3.35035 12 3.35035C10.2327 3.35035 8.80002 4.7945 8.80002 6.57595C8.80002 8.3574 10.2327 9.80155 12 9.80155Z" fill="white"/>
</svg>
