<svg width="24" height="24" viewBox="0 0 24 24" fill="none" xmlns="http://www.w3.org/2000/svg">
<mask id="path-1-inside-1_454_2063" fill="white">
<path fill-rule="evenodd" clip-rule="evenodd" d="M13.2779 4.0517C13.1074 4.01629 12.935 3.98752 12.7611 3.96558V3.19622C12.7611 2.98506 12.6761 2.78254 12.5249 2.63322C12.3737 2.48391 12.1686 2.40002 11.9547 2.40002C11.7408 2.40002 11.5357 2.48391 11.3845 2.63322C11.2333 2.78254 11.1483 2.98506 11.1483 3.19622V3.97751C9.58405 4.19097 8.15112 4.95695 7.11495 6.13356C6.07878 7.31017 5.50957 8.81768 5.51275 10.3769V13.3231C5.4371 14.3234 5.15987 15.2987 4.69732 16.1918C4.28107 16.8373 3.77931 17.425 3.20537 17.9393C3.07489 18.0529 3 18.2175 3 18.3906V18.6442C3 19.2825 3.5175 19.8 4.15586 19.8H19.8441C20.4825 19.8 21 19.2825 21 18.6442V18.3906C21 18.2175 20.9251 18.0529 20.7946 17.9393C20.212 17.4267 19.702 16.8389 19.2785 16.1918C18.816 15.2987 18.5387 14.3234 18.4631 13.3231V10.3769C18.465 9.61761 18.3312 8.87063 18.0739 8.16813C17.6779 8.318 17.2485 8.40002 16.8 8.40002C14.8118 8.40002 13.2 6.78825 13.2 4.80002C13.2 4.54343 13.2268 4.2931 13.2779 4.0517ZM10.8064 21.2579C10.4755 21.0374 10.2601 20.7326 10.2 20.4H13.8C13.7399 20.7326 13.5245 21.0374 13.1936 21.2579C12.8628 21.4785 12.4388 21.6 12 21.6C11.5612 21.6 11.1372 21.4785 10.8064 21.2579Z"/>
</mask>
<path d="M13.2779 4.0517L15.2346 4.46539L15.6498 2.50167L13.6846 2.0935L13.2779 4.0517ZM12.7611 3.96558H10.7611V5.72913L12.5108 5.94985L12.7611 3.96558ZM12.5249 2.63322L11.1197 4.05639L11.1197 4.05639L12.5249 2.63322ZM11.3845 2.63322L9.97931 1.21005L9.9793 1.21006L11.3845 2.63322ZM11.1483 3.97751L11.4187 5.95914L13.1483 5.72311V3.97751H11.1483ZM7.11495 6.13356L8.6159 7.45536L7.11495 6.13356ZM5.51275 10.3769H7.51276L7.51275 10.3728L5.51275 10.3769ZM5.51275 13.3231L7.50706 13.4739L7.51275 13.3986V13.3231H5.51275ZM4.69732 16.1918L6.37816 17.2757L6.4296 17.1959L6.47326 17.1116L4.69732 16.1918ZM3.20537 17.9393L4.51914 19.4472L4.52963 19.4381L4.54 19.4288L3.20537 17.9393ZM20.7946 17.9393L19.4736 19.4409L19.4809 19.4472L20.7946 17.9393ZM19.2785 16.1918L17.5026 17.1116L17.5494 17.2019L17.6051 17.287L19.2785 16.1918ZM18.4631 13.3231H16.4631V13.3986L16.4688 13.4739L18.4631 13.3231ZM18.4631 10.3769L16.4631 10.3718V10.3769H18.4631ZM18.0739 8.16813L19.9519 7.48028L19.2567 5.58213L17.366 6.29759L18.0739 8.16813ZM10.2 20.4V18.4H7.80602L8.2319 20.7558L10.2 20.4ZM13.8 20.4L15.7681 20.7558L16.194 18.4H13.8V20.4ZM13.1936 21.2579L14.303 22.9221L14.303 22.9221L13.1936 21.2579ZM13.6846 2.0935C13.4625 2.04736 13.2379 2.00988 13.0114 1.9813L12.5108 5.94985C12.6321 5.96516 12.7523 5.98522 12.8712 6.00991L13.6846 2.0935ZM14.7611 3.96558V3.19622H10.7611V3.96558H14.7611ZM14.7611 3.19622C14.7611 2.44636 14.4591 1.73243 13.9301 1.21005L11.1197 4.05639C10.8931 3.83265 10.7611 3.52375 10.7611 3.19622H14.7611ZM13.9301 1.21006C13.4019 0.68853 12.6909 0.400024 11.9547 0.400024V4.40002C11.6463 4.40002 11.3454 4.27929 11.1197 4.05639L13.9301 1.21006ZM11.9547 0.400024C11.2185 0.400024 10.5075 0.688532 9.97931 1.21005L12.7897 4.05639C12.564 4.27929 12.2631 4.40002 11.9547 4.40002V0.400024ZM9.9793 1.21006C9.45025 1.73243 9.14832 2.44636 9.14832 3.19622H13.1483C13.1483 3.52375 13.0163 3.83265 12.7897 4.05639L9.9793 1.21006ZM9.14832 3.19622V3.97751H13.1483V3.19622H9.14832ZM10.8779 1.99587C8.84116 2.27381 6.9702 3.27175 5.614 4.81176L8.6159 7.45536C9.33205 6.64214 10.3269 6.10813 11.4187 5.95914L10.8779 1.99587ZM5.614 4.81176C4.25725 6.3524 3.50857 8.33075 3.51276 10.381L7.51275 10.3728C7.51057 9.30462 7.90031 8.26794 8.6159 7.45536L5.614 4.81176ZM3.51275 10.3769V13.3231H7.51275V10.3769H3.51275ZM3.51845 13.1723C3.46315 13.9035 3.26046 14.6173 2.92138 15.272L6.47326 17.1116C7.05927 15.9801 7.41105 14.7434 7.50706 13.4739L3.51845 13.1723ZM3.01647 15.1079C2.69732 15.6029 2.31213 16.0542 1.87073 16.4497L4.54 19.4288C5.2465 18.7958 5.86482 18.0718 6.37816 17.2757L3.01647 15.1079ZM1.8916 16.4313C1.32514 16.9248 1 17.6393 1 18.3906H5C5 18.7957 4.82464 19.1811 4.51914 19.4472L1.8916 16.4313ZM1 18.3906V18.6442H5V18.3906H1ZM1 18.6442C1 20.3871 2.41292 21.8 4.15586 21.8V17.8C4.62207 17.8 5 18.178 5 18.6442H1ZM4.15586 21.8H19.8441V17.8H4.15586V21.8ZM19.8441 21.8C21.5871 21.8 23 20.3871 23 18.6442H19C19 18.178 19.3779 17.8 19.8441 17.8V21.8ZM23 18.6442V18.3906H19V18.6442H23ZM23 18.3906C23 17.6393 22.6749 16.9248 22.1084 16.4313L19.4809 19.4472C19.1754 19.1811 19 18.7957 19 18.3906H23ZM22.1157 16.4376C21.6678 16.0437 21.2765 15.5925 20.952 15.0966L17.6051 17.287C18.1276 18.0854 18.7562 18.8098 19.4736 19.4409L22.1157 16.4376ZM21.0545 15.272C20.7154 14.6173 20.5127 13.9035 20.4574 13.1723L16.4688 13.4739C16.5648 14.7434 16.9166 15.9801 17.5026 17.1116L21.0545 15.272ZM20.4631 13.3231V10.3769H16.4631V13.3231H20.4631ZM20.4631 10.382C20.4656 9.38403 20.2897 8.40257 19.9519 7.48028L16.1959 8.85598C16.3727 9.33869 16.4644 9.85119 16.4631 10.3718L20.4631 10.382ZM17.366 6.29759C17.1927 6.36318 17.003 6.40002 16.8 6.40002V10.4C17.4941 10.4 18.1631 10.2728 18.7818 10.0387L17.366 6.29759ZM16.8 6.40002C15.9163 6.40002 15.2 5.68368 15.2 4.80002H11.2C11.2 7.89282 13.7072 10.4 16.8 10.4V6.40002ZM15.2 4.80002C15.2 4.68329 15.2122 4.57159 15.2346 4.46539L11.3211 3.63801C11.2415 4.01461 11.2 4.40356 11.2 4.80002H15.2ZM8.2319 20.7558C8.40572 21.7173 9.00045 22.4577 9.69697 22.9221L11.9158 19.5938C11.9506 19.6171 12.1145 19.748 12.1681 20.0442L8.2319 20.7558ZM13.8 18.4H10.2V22.4H13.8V18.4ZM14.303 22.9221C14.9996 22.4577 15.5943 21.7173 15.7681 20.7558L11.8319 20.0442C11.8855 19.748 12.0494 19.6171 12.0842 19.5938L14.303 22.9221ZM12 23.6C12.7911 23.6 13.61 23.3841 14.303 22.9221L12.0842 19.5938C12.1042 19.5805 12.1067 19.5833 12.0863 19.5891C12.0666 19.5948 12.0365 19.6 12 19.6V23.6ZM9.69697 22.9221C10.39 23.3841 11.2089 23.6 12 23.6V19.6C11.9635 19.6 11.9334 19.5948 11.9137 19.5891C11.8933 19.5833 11.8958 19.5805 11.9158 19.5938L9.69697 22.9221Z" fill="white" mask="url(#path-1-inside-1_454_2063)"/>
<circle cx="16.8002" cy="4.79995" r="3.6" fill="#9557FF"/>
</svg>
