<svg width="19" height="24" viewBox="0 0 19 24" fill="none" xmlns="http://www.w3.org/2000/svg">
<path fill-rule="evenodd" clip-rule="evenodd" d="M18.3999 9.00125C18.3999 13.7222 14.766 17.5943 10.1432 17.9722L10.146 20.1716H11.6499C12.0641 20.1716 12.3999 20.5074 12.3999 20.9217C12.3999 21.3359 12.0641 21.6718 11.6499 21.6718H10.1479L10.1499 23.2489C10.1505 23.6632 9.8151 23.9995 9.40088 24C8.98667 24.0005 8.65046 23.6651 8.64993 23.2509L8.6479 21.6718H7.1499C6.73569 21.6718 6.3999 21.3359 6.3999 20.9217C6.3999 20.5074 6.73569 20.1716 7.1499 20.1716H8.64598L8.64317 17.9711C4.02673 17.5868 0.399902 13.7176 0.399902 9.00125C0.399902 4.03 4.42934 0 9.3999 0C14.3705 0 18.3999 4.03 18.3999 9.00125ZM9.3999 16.5023C13.542 16.5023 16.8999 13.144 16.8999 9.00125C16.8999 4.85854 13.542 1.50021 9.3999 1.50021C5.25777 1.50021 1.8999 4.85854 1.8999 9.00125C1.8999 13.144 5.25777 16.5023 9.3999 16.5023Z" fill="white"/>
</svg>
