<svg width="20" height="28" viewBox="0 0 20 28" fill="none" xmlns="http://www.w3.org/2000/svg">
<path fill-rule="evenodd" clip-rule="evenodd" d="M19.0039 0.835561L11.804 0.799814C11.3622 0.797621 11.0023 1.16475 11.0001 1.61983C10.998 2.0749 11.3544 2.44559 11.7963 2.44779L17.0649 2.47394L10.8838 8.77933C9.80675 7.93122 8.46057 7.42739 7.00014 7.42739C3.4655 7.42739 0.600098 10.3787 0.600098 14.0194C0.600098 17.3784 3.03937 20.1506 6.19296 20.5594L6.19599 22.9942H4.60016C4.15833 22.9942 3.80016 23.3631 3.80016 23.8182C3.80016 24.2733 4.15833 24.6422 4.60016 24.6422H6.19804L6.2002 26.3769C6.20076 26.8319 6.5594 27.2004 7.00123 27.1998C7.44306 27.1992 7.80077 26.8298 7.80021 26.3748L7.79805 24.6422H9.40019C9.84203 24.6422 10.2002 24.2733 10.2002 23.8182C10.2002 23.3631 9.84203 22.9942 9.40019 22.9942H7.796L7.79298 20.5612C10.9535 20.159 13.4002 17.3835 13.4002 14.0194C13.4002 12.477 12.8859 11.0583 12.0243 9.93535L18.1908 3.64485L18.1654 9.07146C18.1633 9.52653 18.5197 9.89722 18.9615 9.89941C19.4034 9.90161 19.7633 9.53447 19.7654 9.0794L19.8001 1.66352C19.8022 1.20844 19.4458 0.837754 19.0039 0.835561ZM11.8002 14.0194C11.8002 16.7498 9.65113 18.9633 7.00014 18.9633C4.34916 18.9633 2.20011 16.7498 2.20011 14.0194C2.20011 11.2889 4.34916 9.07538 7.00014 9.07538C9.65113 9.07538 11.8002 11.2889 11.8002 14.0194Z" fill="white"/>
</svg>
