<svg width="156" height="156" viewBox="0 0 156 156" fill="none" xmlns="http://www.w3.org/2000/svg">
<path d="M133.154 133.154C144.063 122.246 151.492 108.348 154.501 93.217C157.511 78.0865 155.966 62.4033 150.063 48.1507C144.159 33.8981 134.162 21.7161 121.334 13.1454C108.507 4.57462 93.4269 7.04943e-07 78 0C62.5731 -7.04943e-07 47.4926 4.57462 34.6655 13.1454C21.8385 21.7161 11.841 33.8981 5.9374 48.1507C0.033762 62.4033 -1.5109 78.0865 1.49875 93.217C4.50839 108.348 11.9372 122.246 22.8457 133.154L34.6442 121.356C26.0692 112.781 20.2295 101.856 17.8637 89.9618C15.4979 78.068 16.7121 65.7397 21.3529 54.536C25.9936 43.3322 33.8524 33.7562 43.9355 27.0189C54.0186 20.2816 65.8732 16.6856 78 16.6856C90.1268 16.6856 101.981 20.2816 112.064 27.0189C122.148 33.7562 130.006 43.3322 134.647 54.536C139.288 65.7397 140.502 78.068 138.136 89.9619C135.77 101.856 129.931 112.781 121.356 121.356L133.154 133.154Z" fill="white" fill-opacity="0.08"/>
<path d="M28.5025 127.497C25.3783 130.622 20.2764 130.645 17.4885 127.218C12.405 120.967 8.31009 113.955 5.36272 106.422C1.44149 96.401 -0.363704 85.6767 0.0606779 74.924C0.48506 64.1712 3.12984 53.6225 7.82867 43.9415C12.5275 34.2604 19.1787 25.6563 27.364 18.6704C35.5493 11.6845 45.0916 6.46789 55.3908 3.34865C65.69 0.229408 76.5231 -0.724971 87.209 0.545536C97.8949 1.81604 108.202 5.28395 117.483 10.7311C124.459 14.8255 130.741 19.9715 136.114 25.9739C139.061 29.2658 138.237 34.3006 134.66 36.8951L134.105 37.2977C130.529 39.8922 125.561 39.0526 122.524 35.8443C118.564 31.6625 114.026 28.0496 109.037 25.1211C101.741 20.8392 93.639 18.1131 85.239 17.1144C76.8391 16.1157 68.3233 16.8659 60.2273 19.3179C52.1313 21.7699 44.6303 25.8706 38.196 31.3621C31.7616 36.8536 26.5332 43.6171 22.8396 51.2272C19.1459 58.8373 17.0669 67.1294 16.7333 75.582C16.3997 84.0345 17.8187 92.4647 20.9011 100.342C23.0092 105.73 25.8642 110.779 29.3718 115.346C32.063 118.851 32.1115 123.889 28.9873 127.013L28.5025 127.497Z" fill="url(#paint0_linear_158_3994)"/>
<defs>
<linearGradient id="paint0_linear_158_3994" x1="156" y1="78" x2="-1.16229e-06" y2="78" gradientUnits="userSpaceOnUse">
<stop stop-color="#5772FF"/>
<stop offset="1" stop-color="#9557FF"/>
</linearGradient>
</defs>
</svg>
