<svg width="156" height="156" viewBox="0 0 156 156" fill="none" xmlns="http://www.w3.org/2000/svg">
<path d="M133.154 133.154C144.063 122.246 151.492 108.348 154.501 93.217C157.511 78.0865 155.966 62.4033 150.063 48.1507C144.159 33.8981 134.162 21.7161 121.334 13.1454C108.507 4.57462 93.4269 7.04943e-07 78 0C62.5731 -7.04943e-07 47.4926 4.57462 34.6655 13.1454C21.8385 21.7161 11.841 33.8981 5.9374 48.1507C0.033762 62.4033 -1.5109 78.0865 1.49875 93.217C4.50839 108.348 11.9372 122.246 22.8457 133.154L34.6442 121.356C26.0692 112.781 20.2295 101.856 17.8637 89.9618C15.4979 78.068 16.7121 65.7397 21.3529 54.536C25.9936 43.3322 33.8524 33.7562 43.9355 27.0189C54.0186 20.2816 65.8732 16.6856 78 16.6856C90.1268 16.6856 101.981 20.2816 112.064 27.0189C122.148 33.7562 130.006 43.3322 134.647 54.536C139.288 65.7397 140.502 78.068 138.136 89.9619C135.77 101.856 129.931 112.781 121.356 121.356L133.154 133.154Z" fill="white" fill-opacity="0.08"/>
<path d="M28.5025 127.497C25.3783 130.622 20.2764 130.645 17.4885 127.217C11.4316 119.771 6.78629 111.251 3.8091 102.077C0.0066064 90.3603 -0.966684 77.9093 0.968926 65.7438C2.90454 53.5784 7.69401 42.0443 14.9452 32.0861C22.1963 22.1279 31.703 14.0287 42.6867 8.45166C53.6705 2.87465 65.8189 -0.0215795 78.1374 0.000121029C90.4559 0.0218216 102.594 2.96083 113.558 8.5765C124.522 14.1922 134 22.3248 141.216 32.3085C146.866 40.1253 151.003 48.9028 153.442 58.187C154.564 62.4604 151.535 66.5656 147.169 67.2445L146.491 67.3498C142.126 68.0287 138.087 65.0168 136.846 60.7764C134.888 54.0878 131.798 47.7626 127.693 42.0827C122.021 34.2347 114.57 27.8418 105.952 23.4274C97.333 19.013 87.7914 16.7027 78.108 16.6857C68.4247 16.6686 58.875 18.9453 50.2409 23.3293C41.6067 27.7133 34.1337 34.0799 28.4337 41.9079C22.7337 49.7359 18.9688 58.8026 17.4472 68.3656C15.9257 77.9287 16.6908 87.7162 19.6798 96.9267C21.8432 103.593 25.1269 109.819 29.3718 115.346C32.0629 118.851 32.1115 123.889 28.9873 127.013L28.5025 127.497Z" fill="url(#paint0_linear_158_3994)"/>
<defs>
<linearGradient id="paint0_linear_158_3994" x1="156" y1="78" x2="-1.16229e-06" y2="78" gradientUnits="userSpaceOnUse">
<stop stop-color="#5772FF"/>
<stop offset="1" stop-color="#9557FF"/>
</linearGradient>
</defs>
</svg>
