<svg width="21" height="21" viewBox="0 0 21 21" fill="none" xmlns="http://www.w3.org/2000/svg">
<path d="M17.5833 6.36893C17.5833 6.59939 17.4872 6.8204 17.3161 6.98336L8.20293 15.6617C8.11828 15.7425 8.01772 15.8066 7.907 15.8504C7.79628 15.8941 7.67759 15.9167 7.55772 15.9167C7.43785 15.9167 7.31916 15.8941 7.20845 15.8504C7.09773 15.8066 6.99717 15.7425 6.91251 15.6617L3.26726 12.1904C3.09613 12.0274 3 11.8064 3 11.5759C3 11.3455 3.09613 11.1245 3.26726 10.9615C3.43838 10.7986 3.67046 10.707 3.91247 10.707C4.15447 10.707 4.38656 10.7986 4.55768 10.9615L7.55772 13.8202L16.0257 5.7545C16.1968 5.59155 16.4289 5.5 16.6709 5.5C16.9129 5.5 17.145 5.59155 17.3161 5.7545C17.4872 5.91746 17.5833 6.13848 17.5833 6.36893Z" fill="white"/>
</svg>
