<svg width="24" height="24" viewBox="0 0 24 24" fill="none" xmlns="http://www.w3.org/2000/svg">
<path fill-rule="evenodd" clip-rule="evenodd" d="M23.25 0H16.5C16.0857 0 15.75 0.335789 15.75 0.750004C15.75 1.16422 16.0857 1.50001 16.5 1.50001L21.4393 1.50001L14.8117 8.12763C13.2437 6.80028 11.2153 5.99991 9.00005 5.99991C4.02946 5.99991 0 10.0294 0 15C0 19.9705 4.02946 24 9.00005 24C13.9706 24 18.0001 19.9705 18.0001 15C18.0001 12.7847 17.1997 10.7563 15.8724 9.1883L22.5 2.56067V7.50004C22.5 7.91425 22.8358 8.25004 23.25 8.25004C23.6642 8.25004 24 7.91425 24 7.50004L24 0.750004C24 0.335789 23.6642 0 23.25 0ZM16.5001 15C16.5001 19.1421 13.1422 22.5 9.00005 22.5C4.85789 22.5 1.50001 19.1421 1.50001 15C1.50001 10.8578 4.85789 7.49992 9.00005 7.49992C13.1422 7.49992 16.5001 10.8578 16.5001 15Z" fill="white"/>
</svg>
