<svg width="111" height="94" viewBox="0 0 111 94" fill="none" xmlns="http://www.w3.org/2000/svg">
<path opacity="0.1" d="M44 48.5L58.6533 54.9249L61.289 48.9137L58.9438 42.7832L44 48.5ZM0.556155 -20.2832L29.0562 54.2168L58.9438 42.7832L30.4438 -31.7168L0.556155 -20.2832ZM29.3467 42.0751L0.846662 107.075L30.1533 119.925L58.6533 54.9249L29.3467 42.0751Z" fill="white"/>
<path opacity="0.1" d="M88.5 48.5L103.153 54.9249L105.789 48.9137L103.444 42.7832L88.5 48.5ZM45.0562 -20.2832L73.5562 54.2168L103.444 42.7832L74.9438 -31.7168L45.0562 -20.2832ZM73.8467 42.0751L45.3467 107.075L74.6533 119.925L103.153 54.9249L73.8467 42.0751Z" fill="white"/>
<path opacity="0.1" d="M133 48.5L147.653 54.9249L150.289 48.9137L147.944 42.7832L133 48.5ZM89.5562 -20.2832L118.056 54.2168L147.944 42.7832L119.444 -31.7168L89.5562 -20.2832ZM118.347 42.0751L89.8467 107.075L119.153 119.925L147.653 54.9249L118.347 42.0751Z" fill="white"/>
</svg>
