<svg width="24" height="24" viewBox="0 0 24 24" fill="none" xmlns="http://www.w3.org/2000/svg">
<path fill-rule="evenodd" clip-rule="evenodd" d="M21.6004 21.629C21.6004 22.2228 21.1228 22.7042 20.5337 22.7042C19.9446 22.7042 19.4671 22.2228 19.4671 21.629V19.4786C19.4671 17.6971 18.0344 16.253 16.2671 16.253H7.73372C5.96641 16.253 4.53372 17.6971 4.53372 19.4786V21.629C4.53372 22.2228 4.05616 22.7042 3.46706 22.7042C2.87795 22.7042 2.40039 22.2228 2.40039 21.629V19.4786C2.40039 16.5095 4.78821 14.1026 7.73372 14.1026H16.2671C19.2126 14.1026 21.6004 16.5095 21.6004 19.4786V21.629ZM12.0004 11.9522C9.05487 11.9522 6.66706 9.54528 6.66706 6.5762C6.66706 3.60711 9.05487 1.2002 12.0004 1.2002C14.9459 1.2002 17.3337 3.60711 17.3337 6.5762C17.3337 9.54528 14.9459 11.9522 12.0004 11.9522ZM12.0004 9.80179C13.7677 9.80179 15.2004 8.35764 15.2004 6.5762C15.2004 4.79475 13.7677 3.35059 12.0004 3.35059C10.2331 3.35059 8.80039 4.79475 8.80039 6.5762C8.80039 8.35764 10.2331 9.80179 12.0004 9.80179Z" fill="#8F8F8F"/>
</svg>
