<svg width="24" height="24" viewBox="0 0 24 24" fill="none" xmlns="http://www.w3.org/2000/svg">
<mask id="path-1-inside-1_8_28" fill="white">
<path d="M21 18.3905C21 18.2175 20.9251 18.0529 20.7946 17.9392V17.9392C20.212 17.4267 19.702 16.8389 19.2785 16.1918C18.816 15.2987 18.5387 14.3234 18.4631 13.3231V10.3769C18.4671 8.80571 17.8899 7.28719 16.8399 6.10661C15.7899 4.92603 14.3395 4.16466 12.7611 3.96555V3.19619C12.7611 2.98503 12.6761 2.78251 12.5249 2.63319C12.3737 2.48388 12.1686 2.39999 11.9547 2.39999C11.7408 2.39999 11.5357 2.48388 11.3845 2.63319C11.2333 2.78251 11.1483 2.98503 11.1483 3.19619V3.97747C9.58405 4.19094 8.15112 4.95692 7.11495 6.13353C6.07878 7.31014 5.50957 8.81765 5.51275 10.3769V13.3231C5.4371 14.3234 5.15987 15.2987 4.69732 16.1918C4.28107 16.8373 3.77931 17.425 3.20537 17.9392V17.9392C3.07489 18.0529 3 18.2175 3 18.3905V18.6441C3 19.2825 3.5175 19.8 4.15586 19.8H19.8441C20.4825 19.8 21 19.2825 21 18.6441V18.3905Z"/>
<path d="M10.2 20.4C10.2601 20.7326 10.4755 21.0373 10.8064 21.2579C11.1372 21.4785 11.5612 21.6 12 21.6C12.4388 21.6 12.8628 21.4785 13.1936 21.2579C13.5245 21.0373 13.7399 20.7326 13.8 20.4H10.2Z"/>
</mask>
<path d="M19.2785 16.1918L17.5026 17.1116L17.5494 17.2019L17.6051 17.287L19.2785 16.1918ZM18.4631 13.3231H16.4631V13.3986L16.4688 13.4739L18.4631 13.3231ZM18.4631 10.3769L16.4631 10.3718V10.3769H18.4631ZM12.7611 3.96555H10.7611V5.7291L12.5108 5.94982L12.7611 3.96555ZM11.1483 3.97747L11.4187 5.95911L13.1483 5.72308V3.97747H11.1483ZM5.51275 10.3769L7.51276 10.3769L7.51275 10.3728L5.51275 10.3769ZM5.51275 13.3231L7.50706 13.4739L7.51275 13.3986V13.3231H5.51275ZM4.69732 16.1918L6.37816 17.2756L6.4296 17.1959L6.47325 17.1116L4.69732 16.1918ZM10.2 20.4V18.4H7.80602L8.2319 20.7558L10.2 20.4ZM12 21.6L12 23.6L12 21.6ZM13.8 20.4L15.7681 20.7558L16.194 18.4H13.8V20.4ZM22.1157 16.4376C21.6678 16.0436 21.2765 15.5924 20.952 15.0965L17.6051 17.287C18.1276 18.0853 18.7562 18.8097 19.4736 19.4409L22.1157 16.4376ZM21.0545 15.272C20.7154 14.6173 20.5127 13.9034 20.4574 13.1723L16.4688 13.4739C16.5648 14.7433 16.9166 15.9801 17.5026 17.1116L21.0545 15.272ZM20.4631 13.3231V10.3769H16.4631V13.3231H20.4631ZM20.4631 10.3819C20.4683 8.316 19.7091 6.32325 18.3344 4.77748L15.3454 7.43574C16.0706 8.25112 16.4658 9.29541 16.4631 10.3718L20.4631 10.3819ZM18.3344 4.77748C16.9602 3.23237 15.0665 2.24052 13.0114 1.98127L12.5108 5.94982C13.6125 6.08881 14.6197 6.6197 15.3454 7.43574L18.3344 4.77748ZM14.7611 3.96555V3.19619H10.7611V3.96555H14.7611ZM14.7611 3.19619C14.7611 2.44633 14.4591 1.7324 13.9301 1.21003L11.1197 4.05636C10.8931 3.83262 10.7611 3.52372 10.7611 3.19619H14.7611ZM13.9301 1.21003C13.4019 0.688501 12.6909 0.399994 11.9547 0.399994V4.39999C11.6463 4.39999 11.3454 4.27926 11.1197 4.05636L13.9301 1.21003ZM11.9547 0.399994C11.2185 0.399994 10.5075 0.688501 9.9793 1.21003L12.7897 4.05636C12.564 4.27926 12.2631 4.39999 11.9547 4.39999V0.399994ZM9.9793 1.21003C9.45025 1.7324 9.14832 2.44633 9.14832 3.19619H13.1483C13.1483 3.52372 13.0163 3.83262 12.7897 4.05636L9.9793 1.21003ZM9.14832 3.19619V3.97747H13.1483V3.19619H9.14832ZM10.8779 1.99584C8.84116 2.27378 6.9702 3.27172 5.614 4.81173L8.6159 7.45533C9.33205 6.64211 10.3269 6.1081 11.4187 5.95911L10.8779 1.99584ZM5.614 4.81173C4.25725 6.35237 3.50857 8.33072 3.51276 10.3809L7.51275 10.3728C7.51057 9.30459 7.90031 8.26791 8.6159 7.45533L5.614 4.81173ZM3.51275 10.3769V13.3231H7.51275V10.3769H3.51275ZM3.51845 13.1723C3.46315 13.9034 3.26046 14.6173 2.92138 15.272L6.47325 17.1116C7.05927 15.9801 7.41105 14.7433 7.50706 13.4739L3.51845 13.1723ZM3.01647 15.1079C2.69732 15.6028 2.31213 16.0542 1.87073 16.4497L4.54 19.4288C5.2465 18.7957 5.86482 18.0717 6.37816 17.2756L3.01647 15.1079ZM1 18.3905V18.6441H5V18.3905H1ZM4.15586 21.8H19.8441V17.8H4.15586V21.8ZM23 18.6441V18.3905H19V18.6441H23ZM8.2319 20.7558C8.40572 21.7173 9.00045 22.4577 9.69697 22.922L11.9158 19.5938C11.9506 19.617 12.1145 19.748 12.1681 20.0442L8.2319 20.7558ZM9.69697 22.922C10.39 23.3841 11.2089 23.6 12 23.6L12 19.6C11.9635 19.6 11.9334 19.5947 11.9137 19.5891C11.8933 19.5832 11.8958 19.5805 11.9158 19.5938L9.69697 22.922ZM12 23.6C12.7911 23.6 13.61 23.3841 14.303 22.922L12.0842 19.5938C12.1042 19.5805 12.1067 19.5832 12.0863 19.5891C12.0666 19.5947 12.0365 19.6 12 19.6L12 23.6ZM14.303 22.922C14.9996 22.4577 15.5943 21.7173 15.7681 20.7558L11.8319 20.0442C11.8855 19.748 12.0494 19.617 12.0842 19.5938L14.303 22.922ZM13.8 18.4H10.2V22.4H13.8V18.4ZM1 18.6441C1 20.3871 2.41293 21.8 4.15586 21.8V17.8C4.62207 17.8 5 18.1779 5 18.6441H1ZM1.8916 16.4312C1.32515 16.9247 1 17.6392 1 18.3905H5C5 18.7957 4.82464 19.181 4.51914 19.4472L1.8916 16.4312ZM19.8441 21.8C21.5871 21.8 23 20.3871 23 18.6441H19C19 18.1779 19.3779 17.8 19.8441 17.8V21.8ZM19.4809 19.4472C19.1754 19.181 19 18.7957 19 18.3905H23C23 17.6392 22.6749 16.9247 22.1084 16.4312L19.4809 19.4472Z" fill="white" mask="url(#path-1-inside-1_8_28)"/>
</svg>
